<?xml version="1.0" encoding="iso-8859-1"?>
<!-- Uploaded to: SVG Repo, www.svgrepo.com, Generator: SVG Repo Mixer Tools -->
<svg fill="#ffffff" height="800px" width="800px" version="1.1" id="Layer_1" xmlns="http://www.w3.org/2000/svg" xmlns:xlink="http://www.w3.org/1999/xlink" 
	 viewBox="0 0 512 512" xml:space="preserve">
<g transform="translate(1 1)">
	<g>
		<g>
			<path d="M481.133,179.053c-4.267,0-8.533,0.853-12.8,3.413c-2.56-14.507-13.653-29.013-29.867-29.013
				c-5.12,0-10.24,2.56-14.507,5.12c-4.267-11.947-14.507-22.187-28.16-22.187c-11.093,0-19.627,6.827-24.747,15.36
				c-5.12-4.267-11.093-6.827-17.92-6.827c-17.92,0-29.867,17.92-29.867,34.133v102.4c-3.413-6.827-7.68-12.8-11.947-17.067
				c-11.093-10.24-31.573-11.093-42.667-1.707c-3.413,2.56-15.36,15.36,0,35.84c12.8,17.92,20.48,57.173,20.48,77.653
				c0,41.813,25.6,64,42.667,72.533v28.16c0,8.533,0,34.133,26.453,34.133h105.813c29.867,0,29.867-23.893,29.867-34.133v-31.573
				h0.853C511,423.96,511,421.4,511,381.293V213.187C511,196.973,499.053,179.053,481.133,179.053z M493.933,380.44
				c0,36.693,0,36.693-12.8,53.76h-12.8c-5.12,0-8.533,3.413-8.533,8.533s3.413,8.533,8.533,8.533h8.533v25.6
				c0,11.947-1.707,16.213-12.8,16.213H358.253c-6.827,0-9.387-2.56-9.387-17.067v-24.747h8.533c5.12,0,8.533-3.413,8.533-8.533
				s-3.413-8.533-8.533-8.533h-14.507c-1.707,0-36.693-12.8-36.693-58.027c0-23.04-8.533-65.707-23.893-87.893
				c-3.413-4.267-5.973-10.24-2.56-12.8c2.56-1.707,5.973-2.56,9.387-2.56s7.68,0.853,10.24,1.707
				c13.653,13.653,23.893,46.933,23.893,61.44c0,4.267,3.413,7.68,7.68,8.533s8.533-1.707,9.387-5.973v-0.853
				c0-0.853,0-1.707,0-2.56v-0.853V178.2c0-7.68,5.973-17.067,12.8-17.067c7.68,0,12.8,9.387,12.8,17.067v136.533
				c0,5.12,3.413,8.533,8.533,8.533s8.533-3.413,8.533-8.533V178.2v-8.533c0-7.68,5.973-17.067,12.8-17.067
				c7.68,0,12.8,10.24,12.8,17.067v17.067v128c0,5.12,3.413,8.533,8.533,8.533s8.533-3.413,8.533-8.533v-128
				c0-7.68,5.12-17.067,11.947-17.067c7.68,0,13.653,10.24,13.653,17.067v25.6v110.933c0,5.12,3.413,8.533,8.533,8.533
				c5.12,0,8.533-3.413,8.533-8.533V212.333c0-7.68,5.973-17.067,12.8-17.067c7.68,0,12.8,10.24,12.8,17.067V380.44z"/>
		</g>
	</g>
</g>
</svg>